<svg xmlns="http://www.w3.org/2000/svg" width="16" height="16" fill="currentColor" class="bi bi-currency-dollar" viewBox="0 0 16 16">
  <path d="M4 10.781c.148 1.667 1.513 2.85 3.591 3.003V15h1.043v-1.216c2.27-.179 3.678-1.438 3.678-3.3 0-1.59-.947-2.51-2.956-3.028l-.722-.187V3.467c1.122.11 1.879.714 2.07 1.616h1.47c-.198-1.077-.942-1.844-2.493-2.332V0H9.014v1.233c-1.658.196-2.855 1.13-2.855 2.531 0 1.157.683 1.743 1.998 2.152l.781.258V7.5H4zm2.684 3.003c-1.546-.176-2.544-.963-2.684-2.492h1.46c.112 1.059.697 1.658 1.706 1.72zM8.707 6.471c-1.121.18-1.706.743-1.932 1.488h1.855c.214-.62.83-1.157 1.932-1.488z"/>
</svg>