<svg xmlns="http://www.w3.org/2000/svg" width="16" height="16" fill="currentColor" class="bi bi-robot" viewBox="0 0 16 16">
  <path d="M6 12.5a.5.5 0 0 1 .5-.5h3a.5.5 0 0 1 0 1h-3a.5.5 0 0 1-.5-.5M3 8.062C3 6.76 4.235 5.765 5.53 5.886a26.6 26.6 0 0 0 4.94 0C11.765 5.765 13 6.76 13 8.062v1.157a.93.93 0 0 1-.765.935c-.458.115-.991.139-1.55.12-1.25-.042-2.52-.164-3.8-.37A9.96 9.96 0 0 1 3 9.214zm10.745 3.727a.5.5 0 0 1-.747-.038L9.123 10.3c-.694.4-1.748.868-2.923.868s-2.229-.468-2.923-.868L2.002 11.751a.5.5 0 0 1-.747.039l-1.452-1.54A.5.5 0 0 1 .5 9.751V8.75a.5.5 0 0 1 .5-.5h2a.5.5 0 0 1 .5.5v2.5a.5.5 0 0 0 .5.5h9a.5.5 0 0 0 .5-.5V8.25a.5.5 0 0 1 .5-.5h2a.5.5 0 0 1 .5.5v1.001a.5.5 0 0 1-.252.433zM9.5 5.027a1.5 1.5 0 1 1-3 0 1.5 1.5 0 0 1 3 0m.5 0a.5.5 0 1 0-1 0 .5.5 0 0 0 1 0z"/>
</svg>